<svg width="24" height="26" viewBox="0 0 24 26" fill="none" xmlns="http://www.w3.org/2000/svg">
<g clip-path="url(#clip0_10029_3260)">
<path fill-rule="evenodd" clip-rule="evenodd" d="M12.0011 0.798279C8.74209 0.798279 8.33309 0.812727 7.05307 0.871787C5.77556 0.9311 4.90355 1.13616 4.14054 1.43704C3.35128 1.7478 2.68178 2.16349 2.01477 2.84002C1.34726 3.51629 0.93726 4.19509 0.629757 4.99506C0.332253 5.76892 0.129751 6.65329 0.0722508 7.94804C0.0150002 9.24584 0 9.66077 0 12.9651C0 16.2694 0.0145002 16.6828 0.0725008 17.9806C0.131251 19.2758 0.333503 20.16 0.630007 20.9336C0.93676 21.7338 1.34676 22.4126 2.01402 23.0889C2.68078 23.7656 3.35028 24.1823 4.13904 24.4931C4.90255 24.794 5.77481 24.999 7.05207 25.0584C8.33209 25.1174 8.74084 25.1319 11.9996 25.1319C15.2589 25.1319 15.6667 25.1174 16.9467 25.0584C18.2242 24.999 19.0972 24.794 19.8607 24.4931C20.6497 24.1823 21.3182 23.7656 21.985 23.0889C22.6525 22.4126 23.0625 21.7338 23.37 20.9338C23.665 20.16 23.8675 19.2756 23.9275 17.9808C23.985 16.683 24 16.2694 24 12.9651C24 9.66077 23.985 9.24609 23.9275 7.9483C23.8675 6.65304 23.665 5.76892 23.37 4.99532C23.0625 4.1951 22.6525 3.51629 21.985 2.84002C21.3175 2.16324 20.65 1.74754 19.86 1.43704C19.0949 1.13616 18.2224 0.9311 16.9449 0.871787C15.6649 0.812727 15.2574 0.798279 11.9974 0.798279H12.0011ZM10.9246 2.9908C11.2441 2.9903 11.6006 2.9908 12.0011 2.9908C15.2051 2.9908 15.5849 3.00246 16.8501 3.06076C18.0201 3.115 18.6551 3.31322 19.0781 3.47976C19.6382 3.70028 20.0374 3.96389 20.4572 4.38973C20.8772 4.81557 21.1372 5.22113 21.3552 5.78891C21.5194 6.21728 21.7152 6.86111 21.7684 8.04737C21.8259 9.32996 21.8384 9.71524 21.8384 12.9623C21.8384 16.2093 21.8259 16.5945 21.7684 17.8771C21.7149 19.0634 21.5194 19.7072 21.3552 20.1356C21.1377 20.7034 20.8772 21.1077 20.4572 21.5332C20.0372 21.9591 19.6384 22.2227 19.0781 22.4432C18.6556 22.6105 18.0201 22.8082 16.8501 22.8625C15.5851 22.9208 15.2051 22.9334 12.0011 22.9334C8.79679 22.9334 8.41704 22.9208 7.15202 22.8625C5.98201 22.8077 5.347 22.6095 4.92375 22.443C4.36374 22.2224 3.96374 21.9588 3.54374 21.533C3.12373 21.1072 2.86373 20.7026 2.64573 20.1346C2.48147 19.7062 2.28572 19.0624 2.23247 17.8761C2.17497 16.5935 2.16347 16.2082 2.16347 12.9592C2.16347 9.71017 2.17497 9.32691 2.23247 8.04433C2.28597 6.85807 2.48147 6.21424 2.64573 5.78536C2.86323 5.21758 3.12373 4.81202 3.54374 4.38618C3.96374 3.96034 4.36374 3.69673 4.92375 3.4757C5.34675 3.30841 5.98201 3.1107 7.15202 3.0562C8.25903 3.0055 8.68804 2.9903 10.9246 2.98776V2.9908ZM18.4066 5.011C17.6116 5.011 16.9666 5.66421 16.9666 6.47051C16.9666 7.27656 17.6116 7.93053 18.4066 7.93053C19.2017 7.93053 19.8467 7.27656 19.8467 6.47051C19.8467 5.66446 19.2017 5.011 18.4066 5.011ZM12.0011 6.71688C8.59786 6.71688 5.83858 9.51449 5.83858 12.965C5.83858 16.4156 8.59786 19.2119 12.0011 19.2119C15.4044 19.2119 18.1627 16.4156 18.1627 12.965C18.1627 9.51449 15.4044 6.71688 12.0011 6.71688ZM12.0011 8.90944C14.2101 8.90944 16.0011 10.7251 16.0011 12.965C16.0011 15.2047 14.2101 17.0206 12.0011 17.0206C9.79183 17.0206 8.00106 15.2047 8.00106 12.965C8.00106 10.7251 9.79183 8.90944 12.0011 8.90944Z" fill="white"/>
</g>
<defs>
<clipPath id="clip0_10029_3260">
<rect width="24" height="24.3336" fill="white" transform="translate(0 0.798279)"/>
</clipPath>
</defs>
</svg>
