<svg width="25" height="24" viewBox="0 0 25 24" fill="none" xmlns="http://www.w3.org/2000/svg">
<g clip-path="url(#clip0_10029_3262)">
<path fill-rule="evenodd" clip-rule="evenodd" d="M22.605 3.28224e-05H2.4647C1.51021 -0.00578544 0.726014 0.76265 0.699219 1.73003V22.2C0.720775 23.1697 1.50809 23.9412 2.4647 23.93H22.605C23.5616 23.9412 24.3489 23.1697 24.3705 22.2V1.73003C24.3437 0.76265 23.5595 -0.00578544 22.605 3.28224e-05ZM7.71182 20.41H4.24004V9.00003H7.71182V20.41ZM6.01538 7.41003C4.9068 7.41036 4.00052 6.51369 3.97374 5.39003C3.95423 4.83521 4.16306 4.29712 4.55025 3.90455C4.93744 3.51198 5.46816 3.30025 6.01538 3.32003C7.08532 3.39557 7.91521 4.29761 7.91521 5.38503C7.91521 6.47246 7.08532 7.3745 6.01538 7.45003V7.41003ZM20.8987 20.34H17.4663V14.76C17.4663 13.43 17.4663 11.7 15.6318 11.7C13.7973 11.7 13.5211 13.16 13.5211 14.63V20.28H10.0099V9.00003H13.2844V10.5H13.3535C14.0377 9.29532 15.3273 8.57791 16.697 8.64003C20.2379 8.64003 20.8987 11.04 20.8987 14.09V20.34Z" fill="white"/>
</g>
<defs>
<clipPath id="clip0_10029_3262">
<rect width="23.6712" height="23.9302" fill="white" transform="translate(0.699219)"/>
</clipPath>
</defs>
</svg>
