<svg width="195" height="61" viewBox="0 0 195 61" fill="none" xmlns="http://www.w3.org/2000/svg">
<g clip-path="url(#clip0_10723_4348)">
<path fill-rule="evenodd" clip-rule="evenodd" d="M29.9997 0.504395C46.5683 0.504395 60 13.936 60 30.5044C60 47.0728 46.5683 60.5044 29.9997 60.5044C13.4315 60.5044 0 47.0728 0 30.5044C0 13.936 13.4315 0.504395 29.9997 0.504395Z" fill="#727272"/>
<path fill-rule="evenodd" clip-rule="evenodd" d="M40.0015 9.87744C44.8154 9.87744 48.718 13.78 48.718 18.5939C48.718 23.4079 44.8154 27.3103 40.0015 27.3103C35.1874 27.3103 31.2852 23.4079 31.2852 18.5939C31.2852 13.78 35.1874 9.87744 40.0015 9.87744Z" fill="white"/>
<path fill-rule="evenodd" clip-rule="evenodd" d="M86.09 46.6371C86.09 43.3318 83.8988 40.9967 79.4092 40.0625C74.8119 39.0925 73.6623 38.1944 73.6623 36.7214C73.6623 34.8173 75.0633 33.5598 78.8705 33.5598C81.5641 33.5598 83.7552 34.3502 85.2638 35.9669H85.4076V33.7038C85.4076 31.656 83.7552 29.2128 78.0082 29.2128C72.2255 29.2128 68.7773 33.0929 68.7773 37.1883C68.7773 40.5296 71.1479 42.6133 75.3143 43.5113C80.5226 44.6252 81.1692 45.3796 81.1692 47.0681C81.1692 49.044 79.984 50.3014 76.2843 50.3014C73.3032 50.3014 71.0765 49.1158 69.424 47.6429H69.3164V49.8345C69.3164 52.7443 71.8665 54.6843 76.8229 54.6843C82.7856 54.6843 86.09 51.4869 86.09 46.6371ZM89.3284 35.6435V47.2837C89.3284 51.8102 91.6991 54.469 96.584 54.469C99.3856 54.469 100.822 53.2113 100.822 51.2355V49.5109H100.643C99.8884 49.978 98.7032 50.1938 97.1589 50.1938C95.2191 50.1938 94.1053 49.2238 94.1053 46.7087V39.1284H97.9488C99.924 39.1284 100.822 37.8353 100.822 36.829V34.8532H94.1053V30.4703H92.9919C92.2375 30.4703 91.3756 31.0449 90.729 31.7994C89.6875 33.0209 89.3284 33.7395 89.3284 35.6435ZM119.146 41.9308C119.146 37.2963 115.411 34.4222 111.388 34.4222C105.856 34.4222 101.906 38.4819 101.906 44.9484C101.906 50.8762 106.611 54.6843 111.424 54.6843C116.74 54.6843 118.428 52.7802 118.428 50.3014V48.7925H118.248C116.704 50.2296 114.333 50.6249 112.322 50.6249C109.484 50.6249 107.257 49.08 106.898 46.6371H110.059C116.452 46.6371 119.146 45.4875 119.146 41.9308ZM114.62 41.3558C114.62 42.7209 113.579 43.224 109.017 43.224H106.862L106.898 42.5774C107.006 40.3499 108.622 38.446 110.957 38.446C113.184 38.446 114.62 39.4158 114.62 41.3558ZM133.124 39.5596V37.8353C133.124 36.3623 132.082 34.6737 129.101 34.6737C124.001 34.6737 121.954 38.3739 121.954 42.2541V51.1635C121.954 53.1754 123.319 54.2534 125.473 54.2534H126.803V43.1163C126.803 40.1704 127.988 38.9846 130.143 38.9846C131.4 38.9846 132.226 39.2724 132.945 39.5596H133.124ZM144.48 51.5228V50.4811H143.187C140.924 50.4811 139.919 49.8704 139.919 47.9303V31.6199C139.919 29.7876 138.877 28.3864 136.47 28.3864H135.106V48.3976C135.106 52.3133 137.261 54.4331 141.248 54.4331C143.367 54.4331 144.48 53.6067 144.48 51.5228ZM151.562 30.6498C151.562 29.1052 150.269 27.8477 148.725 27.8477C147.18 27.8477 145.923 29.1052 145.923 30.6498C145.923 32.1947 147.18 33.4881 148.725 33.4881C150.269 33.4881 151.562 32.1947 151.562 30.6498ZM155.011 51.5228V50.4811H154.112C151.993 50.4811 151.167 49.8704 151.167 47.9303V38.8768C151.167 36.4341 149.874 35.2843 147.719 35.2843H146.354C146.354 35.2843 146.354 47.2837 146.354 48.3976C146.354 52.3133 148.401 54.4331 152.137 54.4331C154.184 54.4331 155.011 53.6067 155.011 51.5228ZM173.873 54.2534V42.9725C173.873 37.4757 170.102 34.4222 165.54 34.4222C159.506 34.4222 156.812 38.6254 156.812 42.7209V51.0918C156.812 52.8881 158.141 54.2534 160.189 54.2534H161.625V43.0443C161.625 40.2782 163.062 38.6974 165.145 38.6974C167.623 38.6974 169.06 40.1345 169.06 43.4038V51.0918C169.06 52.8881 170.425 54.2534 172.58 54.2534H173.873ZM194.604 46.2058V42.9008C194.604 37.9429 191.515 34.4222 186.702 34.4222C180.452 34.4222 176.861 38.8411 176.861 44.3019C176.861 48.8643 180.201 52.1339 184.906 52.1339C187.672 52.1339 189.504 50.6609 189.898 49.2597V49.7266C189.898 49.9063 189.935 50.409 189.935 50.6968C189.97 51.02 189.97 51.4151 189.97 51.7026C189.97 54.5047 188.39 56.1573 184.906 56.1573C182.14 56.1573 179.913 55.2952 178.764 54.0734H178.548V56.2653C178.548 58.5646 181.278 60.5044 185.265 60.5044C191.515 60.5044 194.747 56.1573 194.747 51.3075C194.747 50.6609 194.711 49.6188 194.676 48.8284C194.639 47.9663 194.604 46.8527 194.604 46.2058ZM186.163 38.6974C188.283 38.6974 189.791 40.1704 189.791 43.1881C189.791 46.2776 188.067 48.0739 185.66 48.0739C183.361 48.0739 181.817 46.2058 181.817 43.6909C181.817 40.7812 183.685 38.6974 186.163 38.6974Z" fill="white"/>
</g>
<defs>
<clipPath id="clip0_10723_4348">
<rect width="194.746" height="60" fill="white" transform="translate(0 0.504395)"/>
</clipPath>
</defs>
</svg>
